<svg width="17" height="17" viewBox="0 0 17 17" fill="none" xmlns="http://www.w3.org/2000/svg">
<path d="M8.5 1.0625C4.39277 1.0625 1.0625 4.39277 1.0625 8.5C1.0625 12.6072 4.39277 15.9375 8.5 15.9375C12.6072 15.9375 15.9375 12.6072 15.9375 8.5C15.9375 4.39277 12.6072 1.0625 8.5 1.0625ZM11.2725 11.5812C10.5984 12.2021 9.67871 12.5674 8.58135 12.5674C6.99258 12.5674 5.61797 11.656 4.94893 10.3278C4.67334 9.77832 4.51562 9.15742 4.51562 8.5C4.51562 7.84258 4.67334 7.22168 4.94893 6.67217C5.61797 5.34238 6.99258 4.43096 8.58135 4.43096C9.67705 4.43096 10.5968 4.83438 11.3023 5.49014L10.1369 6.65723C9.71523 6.25381 9.179 6.04961 8.58301 6.04961C7.52383 6.04961 6.62734 6.76514 6.30693 7.72637C6.22559 7.97041 6.1791 8.23105 6.1791 8.5C6.1791 8.76895 6.22559 9.02959 6.30693 9.27363C6.62734 10.2349 7.52383 10.9504 8.58135 10.9504C9.1292 10.9504 9.59404 10.806 9.95762 10.5619C10.3893 10.273 10.6748 9.84307 10.7694 9.3334H8.58135V7.75957H12.4113C12.4595 8.02686 12.4844 8.3041 12.4844 8.59131C12.4844 9.83145 12.0411 10.8724 11.2725 11.5812Z" fill="#E95258"/>
</svg>
