<svg width="17" height="17" viewBox="0 0 101 105" fill="none" xmlns="http://www.w3.org/2000/svg">
<ellipse cx="50.5" cy="52.5" rx="50.5" ry="52.5" fill="#E95258"/>
<path d="M50.5 23C42.7575 23 41.7909 23.0362 38.7509 23.174C35.7156 23.319 33.6494 23.8048 31.8325 24.5225C29.9586 25.262 28.3674 26.2552 26.7832 27.8672C25.1991 29.4791 24.2206 31.0958 23.4963 33.005C22.7909 34.8538 22.3111 36.9563 22.171 40.0448C22.0285 43.1381 22 44.1217 22 52C22 59.8783 22.0356 60.8619 22.171 63.9553C22.3135 67.0413 22.7909 69.1463 23.4963 70.995C24.223 72.8993 25.1991 74.5209 26.7832 76.1328C28.3674 77.7423 29.9562 78.7404 31.8325 79.4775C33.6517 80.1928 35.718 80.6834 38.7509 80.826C41.7909 80.971 42.7575 81 50.5 81C58.2425 81 59.2091 80.9637 62.2491 80.826C65.282 80.681 67.3506 80.1928 69.1675 79.4775C71.039 78.738 72.6326 77.7423 74.2168 76.1328C75.7985 74.5209 76.7794 72.9066 77.5038 70.995C78.2068 69.1463 78.6889 67.0413 78.829 63.9553C78.9715 60.8619 79 59.8783 79 52C79 44.1217 78.9644 43.1381 78.829 40.0448C78.6865 36.9587 78.2068 34.8513 77.5038 33.005C76.777 31.0983 75.7985 29.4791 74.2168 27.8672C72.6326 26.2552 71.0461 25.2596 69.1675 24.5225C67.3506 23.8048 65.282 23.3166 62.2491 23.174C59.2091 23.029 58.2425 23 50.5 23ZM50.5 28.22C58.1071 28.22 59.0144 28.2587 62.0187 28.3916C64.7975 28.5245 66.3056 28.9933 67.3079 29.3945C68.6426 29.9189 69.5879 30.5473 70.5901 31.5598C71.5853 32.5748 72.2027 33.5391 72.7181 34.8973C73.1076 35.9171 73.5731 37.4517 73.699 40.2792C73.8344 43.3387 73.8652 44.257 73.8652 52C73.8652 59.743 73.8296 60.6638 73.6895 63.7208C73.5446 66.5483 73.0815 68.0829 72.6896 69.1027C72.1576 70.4609 71.552 71.4228 70.5545 72.4426C69.5594 73.4552 68.5975 74.0835 67.277 74.6079C66.2795 75.0042 64.7476 75.4779 61.9689 75.606C58.9431 75.7438 58.0525 75.7752 50.4288 75.7752C42.8026 75.7752 41.912 75.7389 38.8886 75.5963C36.1075 75.4489 34.5756 74.9777 33.5781 74.5789C32.2268 74.0376 31.2981 73.4213 30.303 72.4063C29.3031 71.3938 28.6642 70.415 28.1655 69.0713C27.7736 68.0563 27.3129 66.4976 27.168 63.6701C27.0611 60.6251 27.0231 59.685 27.0231 51.9638C27.0231 44.2401 27.0611 43.2976 27.168 40.2163C27.3129 37.3888 27.7736 35.8325 28.1655 34.8175C28.6642 33.44 29.3031 32.4975 30.303 31.4801C31.2981 30.4675 32.2268 29.815 33.5781 29.3099C34.5756 28.9088 36.0743 28.4375 38.853 28.2925C41.8811 28.1838 42.7717 28.1475 50.3931 28.1475L50.5 28.22ZM50.5 37.1085C42.4131 37.1085 35.8652 43.7785 35.8652 52C35.8652 60.2288 42.4202 66.8915 50.5 66.8915C58.5869 66.8915 65.1348 60.2215 65.1348 52C65.1348 43.7713 58.5798 37.1085 50.5 37.1085ZM50.5 61.6667C45.2512 61.6667 41 57.3408 41 52C41 46.6592 45.2512 42.3333 50.5 42.3333C55.7487 42.3333 60 46.6592 60 52C60 57.3408 55.7487 61.6667 50.5 61.6667ZM69.1343 36.5212C69.1343 38.4425 67.6 40.0012 65.7142 40.0012C63.8261 40.0012 62.2943 38.4401 62.2943 36.5212C62.2943 34.6024 63.8285 33.0437 65.7142 33.0437C67.5976 33.0413 69.1343 34.6024 69.1343 36.5212Z" fill="#333333"/>
</svg>
