<svg width="17" height="17" viewBox="0 0 88 83" fill="none" xmlns="http://www.w3.org/2000/svg">
<ellipse cx="44" cy="41.5" rx="44" ry="41.5" fill="#E95258"/>
<path d="M57.2868 46.7565C56.5594 46.394 53.0166 44.6612 52.3568 44.422C51.6971 44.1779 51.2138 44.0595 50.7304 44.7845C50.2543 45.4974 48.8672 47.1142 48.4491 47.5927C48.0262 48.0639 47.6057 48.1002 46.8879 47.7739C46.1629 47.4114 43.8357 46.6502 41.0807 44.1852C38.9347 42.2639 37.4943 39.9077 37.069 39.1827C36.6485 38.4577 37.0231 38.0589 37.3832 37.6964C37.7118 37.3702 38.1106 36.8627 38.4731 36.4325C38.8259 35.9951 38.9419 35.7051 39.1908 35.2338C39.4325 34.7263 39.3092 34.3276 39.1304 33.9675C38.9492 33.605 37.5064 30.0525 36.9023 28.6363C36.3223 27.225 35.7253 27.4038 35.2783 27.4038C34.8626 27.3676 34.3817 27.3676 33.8983 27.3676C33.415 27.3676 32.6344 27.5464 31.9722 28.2352C31.3125 28.9602 29.4468 30.7002 29.4468 34.2164C29.4468 37.7327 32.0327 41.1402 32.3927 41.6477C32.7528 42.1189 37.4798 49.3689 44.7178 52.4864C46.4433 53.2114 47.7869 53.6464 48.8358 54.0065C50.5613 54.5551 52.1345 54.4777 53.3791 54.2989C54.7663 54.079 57.6493 52.5565 58.2511 50.8527C58.8673 49.149 58.8673 47.7352 58.6861 47.409C58.5073 47.0827 58.0336 46.9015 57.3086 46.5752L57.2868 46.7565ZM44.1474 64.5625H44.1088C39.8313 64.5625 35.5924 63.4025 31.8925 61.2275L31.0225 60.7103L21.96 63.0666L24.3888 54.2578L23.8112 53.3516C21.4187 49.5429 20.1475 45.1567 20.1475 40.6399C20.1475 27.4812 30.9138 16.7512 44.174 16.7512C50.5878 16.7512 56.6077 19.2524 61.1414 23.7837C65.6727 28.2762 68.1715 34.2962 68.1715 40.6762C68.1618 53.8325 57.3932 64.5649 44.1619 64.5649L44.1474 64.5625ZM64.59 20.3351C59.08 15.0087 51.83 12 44.1088 12C28.2023 12 15.2513 24.8905 15.2441 40.7414C15.2441 45.8067 16.5708 50.7464 19.0987 55.1085L15 70L30.3096 66.0077C34.5291 68.2866 39.2754 69.4973 44.1088 69.5046H44.1233C60.037 69.5046 72.9928 56.6092 73 40.7559C73 33.0806 70.0033 25.8572 64.5537 20.4293" fill="#333333"/>
</svg>
